<?xml version="1.0" encoding="utf-8"?>
<!-- Generator: Adobe Illustrator 16.0.0, SVG Export Plug-In . SVG Version: 6.00 Build 0)  -->
<!DOCTYPE svg PUBLIC "-//W3C//DTD SVG 1.1//EN" "http://www.w3.org/Graphics/SVG/1.1/DTD/svg11.dtd">
<svg version="1.1" id="Layer_1" xmlns="http://www.w3.org/2000/svg" xmlns:xlink="http://www.w3.org/1999/xlink" x="0px" y="0px"
	 width="155.86px" height="48.833px" viewBox="0 0 155.86 48.833" enable-background="new 0 0 155.86 48.833" xml:space="preserve">
<g>
	<path fill="#F8961D" d="M43.112,27.509c-0.731,0-1.359,0.448-1.622,1.083h-3.565c0.016-0.191,0.003-0.381-0.042-0.549l-1.434-5.316
		c0.899-1.049,1.439-2.386,1.439-3.842c0-1.298-0.428-2.497-1.156-3.485l2.166,0.006l2.038,2.031l0.937-0.934l-2.425-2.419
		l-3.211-0.009l-0.018-3.212l-2.407-2.4l-0.937,0.935l2.021,2.018l0.013,2.325c-1.003-0.607-2.194-0.96-3.472-0.96
		c-1.381,0-2.66,0.412-3.71,1.109l-5.509-1.472c-0.126-0.033-0.261-0.047-0.4-0.045v-3.6c0.658-0.254,1.127-0.89,1.127-1.634
		c0-0.966-0.788-1.752-1.757-1.752c-0.969,0-1.756,0.786-1.756,1.752c0,0.72,0.437,1.338,1.06,1.608v4.212l-3.645,3.636
		l-2.472-2.465c0.084-0.205,0.131-0.427,0.131-0.662c0-0.966-0.788-1.751-1.756-1.751c-0.969,0-1.757,0.785-1.757,1.751
		s0.788,1.752,1.757,1.752c0.248,0,0.484-0.051,0.698-0.145l2.462,2.455l-3.656,3.646c-0.044,0.043-0.085,0.091-0.123,0.143H7.867
		c-0.27-0.62-0.891-1.056-1.61-1.056c-0.969,0-1.757,0.785-1.757,1.752c0,0.966,0.788,1.752,1.757,1.752
		c0.747,0,1.385-0.469,1.638-1.127h3.88c0.008,0.055,0.017,0.108,0.031,0.16l3.056,11.364c0.07,0.256,0.229,0.518,0.452,0.74
		c0.223,0.224,0.486,0.383,0.743,0.452l11.416,3.069c0.057,0.016,0.117,0.025,0.177,0.033v3.943
		c-0.645,0.259-1.101,0.89-1.101,1.624c0,0.966,0.788,1.752,1.756,1.752c0.969,0,1.756-0.786,1.756-1.752
		c0-0.729-0.448-1.355-1.085-1.618v-4.277c0.054-0.04,0.104-0.081,0.15-0.126l3.656-3.646l2.478,2.473
		c-0.093,0.213-0.146,0.448-0.146,0.695c0,0.966,0.788,1.752,1.757,1.752s1.756-0.786,1.756-1.752c0-0.967-0.787-1.751-1.756-1.751
		c-0.235,0-0.459,0.046-0.664,0.131l-2.489-2.483l3.52-3.511h4.246c0.26,0.644,0.891,1.098,1.628,1.098
		c0.968,0,1.757-0.785,1.757-1.751S44.08,27.509,43.112,27.509 M12.75,14.56c-0.604,0-1.094-0.488-1.094-1.091
		c0-0.602,0.49-1.091,1.094-1.091c0.602,0,1.094,0.489,1.094,1.091C13.844,14.071,13.352,14.56,12.75,14.56 M6.257,23.107
		c-0.603,0-1.094-0.489-1.094-1.091s0.491-1.091,1.094-1.091c0.602,0,1.094,0.489,1.094,1.091S6.859,23.107,6.257,23.107
		 M20.095,7.14c0-0.602,0.49-1.091,1.093-1.091s1.094,0.489,1.094,1.091c0,0.603-0.491,1.092-1.094,1.092S20.095,7.742,20.095,7.14
		 M29.399,44.028c0,0.602-0.491,1.091-1.094,1.091s-1.093-0.489-1.093-1.091c0-0.603,0.49-1.092,1.093-1.092
		S29.399,43.426,29.399,44.028 M32.334,28.562c-0.038,0.075-0.12,0.114-0.241,0.12c-1.478,0.055-3.035,0.168-4.405,0.883
		c-0.011,0.006-1.131,0.545-1.974,1.542c-0.14,0.166-0.28,0.333-0.421,0.497c-0.291,0.345-0.591,0.699-0.883,1.055l0.001-0.002
		c-0.012,0.014-0.124,0.145-0.257,0.122c0,0-0.161-0.016-0.216-0.166c0,0-0.021-0.047-0.064-0.135
		c-0.354-0.75-0.795-1.376-1.24-1.979c-0.359-0.479-0.797-0.998-1.317-1.52c-0.522-0.519-1.043-0.954-1.522-1.313
		c-0.604-0.444-1.234-0.884-1.984-1.238c-0.088-0.042-0.135-0.062-0.135-0.062c-0.151-0.057-0.167-0.216-0.167-0.216
		c-0.022-0.134,0.107-0.245,0.123-0.258H17.63c0.357-0.29,0.712-0.59,1.057-0.88c0.166-0.139,0.332-0.279,0.499-0.42
		c0.999-0.841,1.541-1.957,1.546-1.969c0.715-1.366,0.829-2.919,0.884-4.392c0.005-0.122,0.045-0.203,0.12-0.242
		c0.121-0.063,0.267,0.027,0.283,0.04c0.406,0.255,0.824,0.505,1.227,0.748c0.184,0.109,0.369,0.221,0.553,0.333
		c1.12,0.676,2.322,0.873,2.335,0.874c1.526,0.237,3.04-0.154,4.456-0.573c0,0,0.128-0.04,0.229,0.019
		c0.002,0,0.003,0.002,0.005,0.003c0.004,0.002,0.009,0.005,0.012,0.009c0.004,0.002,0.008,0.004,0.011,0.007
		c0.005,0.004,0.007,0.009,0.011,0.013c0.005,0.004,0.01,0.007,0.014,0.012c0.003,0.003,0.005,0.008,0.007,0.012
		c0.003,0.004,0.006,0.007,0.008,0.011c0.002,0.002,0.003,0.003,0.005,0.005l-0.001,0.002c0.058,0.1,0.018,0.226,0.018,0.226
		c-0.421,1.415-0.813,2.925-0.574,4.446c0.001,0.012,0.198,1.212,0.876,2.328c0.111,0.184,0.222,0.368,0.333,0.551
		c0.244,0.404,0.496,0.819,0.751,1.226C32.305,28.296,32.397,28.442,32.334,28.562 M36.871,36.437c0.603,0,1.093,0.489,1.093,1.092
		c0,0.602-0.49,1.091-1.093,1.091s-1.094-0.489-1.094-1.091C35.777,36.926,36.268,36.437,36.871,36.437 M43.112,30.351
		c-0.603,0-1.093-0.488-1.093-1.09c0-0.601,0.49-1.091,1.093-1.091s1.094,0.49,1.094,1.091
		C44.206,29.862,43.715,30.351,43.112,30.351"/>
	<path fill="#F8961D" d="M60.81,28.881c-0.41,0.15-0.653,0.227-0.728,0.227H52.1c-0.288,0-0.5-0.144-0.637-0.431
		c-0.121-0.242-0.167-0.516-0.136-0.816c0.03-0.303,0.129-0.576,0.296-0.816c0.196-0.303,0.432-0.454,0.705-0.454h5.275
		c0.395,0,0.621-0.416,0.682-1.246c0.076-0.85-0.076-1.271-0.454-1.271h-4.116c-0.152,0-0.38-0.076-0.683-0.229
		c-1.288-0.636-1.932-1.576-1.932-2.82c0-0.121,0.014-0.371,0.045-0.75c0.076-0.987,0.417-1.844,1.023-2.572
		c0.652-0.803,1.448-1.205,2.388-1.205h7.641c0.712,0,1.031,0.416,0.955,1.248c-0.031,0.287-0.129,0.56-0.296,0.815
		c-0.197,0.304-0.432,0.455-0.705,0.455h-7.822c-0.365,0-0.584,0.418-0.66,1.259c-0.077,0.854,0.068,1.281,0.433,1.281h6.64
		c0.151,0,0.378,0.076,0.681,0.227c1.289,0.635,1.934,1.565,1.934,2.789C63.357,26.824,62.508,28.261,60.81,28.881"/>
	<path fill="#F8961D" d="M76.637,27.883c-0.045,0.514-0.229,0.87-0.546,1.064c-0.258,0.152-0.66,0.229-1.205,0.229
		c-0.167,0-0.41-0.01-0.728-0.025c-0.318-0.014-0.561-0.021-0.728-0.021c-1.667,0-2.819-0.091-3.457-0.273
		c-1.424-0.409-2.364-1.279-2.819-2.613c-0.243-0.725-0.349-1.293-0.318-1.702l0.477-5.428l-1.819-0.182
		c-0.455-0.09-0.652-0.477-0.591-1.158c0.06-0.666,0.341-1.059,0.841-1.181l1.729-0.067c0.06-0.485,0.196-1.818,0.409-3.998
		c0.061-0.696,0.515-1.045,1.365-1.045c0.302,0,0.567,0.068,0.795,0.203c0.288,0.167,0.417,0.384,0.386,0.656l-0.363,4.153h4.161
		c0.273,0,0.478,0.151,0.614,0.453c0.137,0.242,0.189,0.507,0.16,0.795c-0.032,0.303-0.129,0.574-0.297,0.815
		c-0.196,0.304-0.431,0.455-0.703,0.455h-4.14c0,0.167-0.042,0.402-0.125,0.706c-0.083,0.305-0.124,0.541-0.124,0.709
		c0,0.669,0.424,1.041,1.273,1.118c0.424,0.045,0.716,0.128,0.876,0.25c0.159,0.123,0.238,0.388,0.238,0.8
		c0,0.167-0.023,0.502-0.068,1.004c-0.046,0.425-0.053,0.767-0.023,1.025c0.076,0.792,0.41,1.331,1.001,1.621
		c0.288,0.151,0.901,0.258,1.842,0.318c0.878,0.062,1.424,0.16,1.637,0.296C76.599,26.997,76.682,27.338,76.637,27.883"/>
	<path fill="#F8961D" d="M90.145,25.349c-0.086,0.937-0.147,1.623-0.183,2.061c-0.196,1.132-0.554,1.698-1.069,1.698H80.07
		c-0.15,0-0.379-0.075-0.682-0.227c-1.289-0.635-1.934-1.572-1.934-2.813c0-0.302,0.008-0.544,0.023-0.725
		c0.15-1.83,0.992-3.017,2.523-3.561c0.424-0.152,0.667-0.228,0.729-0.228h4.593c0.062-0.212,0.114-0.551,0.159-1.021
		c0.031-0.333,0.046-0.553,0.046-0.658c0-0.56-0.159-0.839-0.478-0.839h-3.594c-0.59,0-0.855-0.419-0.795-1.26
		c0.061-0.854,0.629-1.28,1.705-1.28c0.137,0,0.338,0.008,0.604,0.021c0.264,0.016,0.465,0.023,0.603,0.023
		c1.167,0,1.871,0.022,2.114,0.067c0.621,0.121,1.168,0.449,1.638,0.985c0.469,0.535,0.719,1.12,0.75,1.755
		c0.015,0.09-0.011,0.269-0.08,0.531c-0.067,0.265-0.103,0.442-0.103,0.533c0,0.452,0.16,0.769,0.479,0.951
		c0.137,0.074,0.447,0.15,0.932,0.226c0.44,0.061,0.717,0.154,0.832,0.284c0.112,0.128,0.17,0.485,0.17,1.074
		C90.305,23.176,90.25,23.976,90.145,25.349 M84.96,26.59l0.204-2.519h-4.34c-0.486,0-0.768,0.424-0.844,1.271
		c-0.077,0.831,0.076,1.247,0.457,1.247H84.96z"/>
	<path fill="#F8961D" d="M102.22,17.778c-0.031,0.284-0.129,0.554-0.294,0.81c-0.197,0.299-0.43,0.449-0.703,0.449h-3.602
		c-0.075,0-0.193,0.067-0.351,0.203c-0.159,0.138-0.237,0.242-0.237,0.317l-0.771,8.688c-0.045,0.469-0.449,0.748-1.211,0.839
		c-0.121,0.015-0.586,0.022-1.393,0.022c-1.098,0-1.707-0.022-1.828-0.067c-0.381-0.137-0.571-0.59-0.571-1.359
		c0-0.12,0.062-0.897,0.183-2.332c0.092-1.086,0.153-1.691,0.184-1.812c0.093-0.859,0.168-1.343,0.229-1.448
		c0.107-0.196,0.489-0.348,1.146-0.453c0.488-0.076,0.836-0.192,1.043-0.35c0.205-0.159,0.322-0.457,0.354-0.896
		c0.031-0.558,0.084-0.912,0.16-1.063c0.648-1.358,1.352-2.196,2.107-2.514c0.438-0.181,1.399-0.271,2.881-0.271
		c0.135,0,0.332-0.01,0.589-0.023c0.258-0.015,0.454-0.023,0.59-0.023C101.796,16.496,102.296,16.924,102.22,17.778"/>
	<path fill="#F8961D" d="M114.773,22.791c-0.153,1.726-0.539,3.074-1.161,4.044c-0.773,1.167-1.947,1.871-3.525,2.113
		c-0.682,0.106-2.054,0.16-4.114,0.16c-1.941,0-2.994-0.01-3.162-0.023c-0.819-0.076-1.205-0.363-1.16-0.862l1.41-15.854
		c0.031-0.287,0.197-0.514,0.5-0.681c0.244-0.136,0.522-0.203,0.842-0.203c0.287,0,0.546,0.067,0.773,0.202
		c0.287,0.166,0.418,0.385,0.387,0.655l-0.363,4.154h5.344c0.485,0,1.016,0.13,1.592,0.387c1.818,0.818,2.729,2.227,2.729,4.227
		C114.863,21.518,114.833,22.079,114.773,22.791 M112.248,22.791c0.016-0.319,0.053-0.918,0.113-1.798
		c0.031-0.378-0.176-0.804-0.624-1.273c-0.448-0.471-0.862-0.706-1.24-0.706h-5.503l-0.137,1.639
		c-0.016,0.121,0.06,0.318,0.228,0.592c0.046,0.091,0.304,0.174,0.772,0.25c0.546,0.091,0.85,0.151,0.912,0.182
		c0.332,0.151,0.482,0.402,0.453,0.751l-0.363,4.163h2.978c0.41,0,0.849-0.223,1.319-0.671c0.47-0.447,0.766-0.883,0.887-1.308
		C112.104,24.383,112.172,23.777,112.248,22.791"/>
	<path fill="#F8961D" d="M128.461,26.313c-0.014,0.243-0.211,0.625-0.591,1.146c-0.379,0.524-0.674,0.839-0.887,0.943
		c-0.257,0.183-0.667,0.387-1.228,0.614c-0.395,0.06-1.373,0.091-2.934,0.091c-2.197,0-3.768-0.235-4.708-0.705
		c-1.379-0.681-2.069-2.023-2.069-4.021c0-0.425,0.008-0.727,0.024-0.91c0.075-0.923,0.222-1.47,0.435-1.636
		c0.106-0.092,0.572-0.212,1.398-0.362c0.595-0.122,0.917-0.396,0.963-0.819l0.293-3.272c0.029-0.272,0.188-0.488,0.473-0.647
		c0.287-0.158,0.572-0.238,0.858-0.238c0.302,0,0.563,0.069,0.79,0.205c0.285,0.166,0.413,0.386,0.383,0.659l-0.613,7.275
		c-0.031,0.393,0.176,0.81,0.619,1.249c0.442,0.439,0.866,0.667,1.272,0.683c0.346,0.015,0.743,0.023,1.194,0.023
		c0.781,0,1.098,0.007,0.946,0.021c0.541-0.045,0.826-0.235,0.857-0.568l0.755-8.66c0.031-0.288,0.197-0.517,0.504-0.683
		c0.244-0.136,0.525-0.205,0.848-0.205c0.305,0,0.571,0.069,0.801,0.205c0.289,0.166,0.418,0.386,0.39,0.659L128.461,26.313z"/>
	<path fill="#F8961D" d="M142.379,29.527c-0.031,0.363-0.244,1.779-0.638,2.533c-0.696,1.343-1.78,2.209-3.251,2.601
		c-0.682,0.182-1.852,0.272-3.503,0.272c-0.166,0-0.413,0.012-0.739,0.034s-0.572,0.034-0.74,0.034
		c-0.543,0-0.931-0.075-1.158-0.227c-0.288-0.197-0.408-0.553-0.363-1.066c0.045-0.484,0.193-0.816,0.443-0.998
		s0.632-0.28,1.147-0.296h1.501c0.395,0,0.861-0.227,1.398-0.685c0.539-0.457,0.822-1.732,0.853-2.106l0.046-0.54h-2.82
		c-0.621,0-1.289-0.188-2-0.566c-1.531-0.816-2.299-2.193-2.299-4.128c0-0.363,0.032-0.9,0.092-1.61
		c0.229-2.646,0.979-4.401,2.252-5.262c1.017-0.682,2.865-1.021,5.55-1.021c1.546,0,2.508,0.037,2.888,0.113
		c0.516,0.106,1.031,0.45,1.547,1.029c0.514,0.581,0.75,1.128,0.704,1.642L142.379,29.527z M140.695,20.103
		c0.045-0.499-0.113-0.831-0.479-0.998c-0.242-0.12-0.635-0.173-1.182-0.158h-0.932c-0.486,0.044-0.607,0.068-0.363,0.068
		c-1.381,0-2.268,0.046-2.662,0.136c-1.061,0.242-1.736,0.846-2.023,1.814c-0.031,0.09-0.09,0.694-0.182,1.814
		c-0.016,0.136-0.031,0.355-0.046,0.658l-0.091,1.156c-0.03,0.378,0.182,0.802,0.637,1.271c0.454,0.469,0.871,0.703,1.25,0.703
		h2.957l0.364-4.173c0.045-0.454,0.379-0.735,0.999-0.84c0.805-0.137,1.252-0.242,1.343-0.317
		C140.514,21.055,140.65,20.678,140.695,20.103"/>
	<path fill="#1C1F4F" d="M128.421,35.714c0.074,0,0.122-0.068,0.122-0.134v-4.334h1.322c0.074,0,0.129-0.04,0.129-0.107v-0.295
		c0-0.075-0.055-0.121-0.129-0.121h-3.262c-0.074,0-0.136,0.054-0.136,0.121v0.295c0,0.074,0.062,0.107,0.136,0.107h1.322v4.334
		c0,0.073,0.055,0.134,0.122,0.134H128.421z M123.084,35.714c0.068,0,0.122-0.061,0.122-0.128v-3.923c0-0.013,0-0.021,0.007-0.021
		c0.006,0,0.014,0.008,0.02,0.021l2.096,3.943c0.033,0.066,0.109,0.107,0.217,0.107h0.421c0.108,0,0.196-0.088,0.196-0.195V30.85
		c0-0.066-0.047-0.127-0.122-0.127h-0.359c-0.067,0-0.122,0.061-0.122,0.127v3.931c0,0.007,0,0.02-0.007,0.02l-0.013-0.02
		l-2.082-3.923c-0.055-0.102-0.088-0.135-0.279-0.135h-0.372c-0.108,0-0.196,0.08-0.196,0.188v4.722
		c0,0.068,0.054,0.081,0.121,0.081H123.084z M121.64,35.727c0.04-0.007,0.067-0.054,0.067-0.094v-0.342
		c0-0.048-0.027-0.081-0.074-0.081h-1.309c-0.719,0-0.834-0.188-0.834-0.699v-1.128h2.082c0.074,0,0.135-0.061,0.135-0.134v-0.256
		c0-0.074-0.061-0.134-0.135-0.134h-2.082v-0.935c0-0.51,0.115-0.699,0.834-0.699h1.309c0.047,0,0.074-0.032,0.074-0.08V30.81
		c0-0.041-0.027-0.087-0.067-0.094c-0.284-0.026-0.923-0.04-1.323-0.04c-0.949,0-1.443,0.356-1.443,1.249v2.586
		c0,0.895,0.494,1.25,1.443,1.25C120.717,35.761,121.382,35.754,121.64,35.727 M114.181,35.714c0.074,0,0.136-0.061,0.136-0.134
		v-3.984c0-0.014,0-0.02,0.006-0.02c0.007,0,0.007,0,0.014,0.013l0.97,1.988c0.068,0.135,0.136,0.195,0.306,0.195h0.312
		c0.169,0,0.237-0.061,0.306-0.195l0.969-1.988c0.008-0.013,0.008-0.013,0.014-0.013c0.007,0,0.007,0.006,0.007,0.02v3.984
		c0,0.073,0.062,0.134,0.136,0.134h0.332c0.075,0,0.135-0.061,0.135-0.134v-4.662c0-0.108-0.088-0.195-0.195-0.195h-0.441
		c-0.121,0-0.176,0.026-0.217,0.114l-1.119,2.304c-0.027,0.061-0.047,0.074-0.08,0.074c-0.035,0-0.055-0.014-0.082-0.074
		l-1.119-2.304c-0.041-0.088-0.095-0.114-0.217-0.114h-0.441c-0.108,0-0.196,0.087-0.196,0.195v4.662
		c0,0.073,0.062,0.134,0.136,0.134H114.181z M110.98,33.215c-0.178,0-0.523-0.02-0.68-0.027V31.22
		c0.163-0.014,0.469-0.026,0.68-0.026c0.873,0,1.281,0.262,1.281,0.939v0.088C112.262,32.919,111.908,33.215,110.98,33.215
		 M110.179,35.714c0.075,0,0.122-0.068,0.122-0.134v-1.888c0.178,0.013,0.462,0.033,0.68,0.033c1.098,0,1.897-0.384,1.897-1.505
		v-0.088c0-1.081-0.8-1.457-1.897-1.457c-0.395,0-0.836,0.021-1.127,0.053c-0.102,0.015-0.162,0.074-0.162,0.169v4.683
		c0,0.073,0.055,0.134,0.121,0.134H110.179z M106.925,35.21c-0.746,0-1.215-0.43-1.215-1.559v-0.866c0-1.129,0.476-1.56,1.215-1.56
		c0.746,0,1.206,0.431,1.206,1.56v0.866C108.131,34.78,107.663,35.21,106.925,35.21 M106.925,35.761c1.063,0,1.83-0.618,1.83-2.109
		v-0.866c0-1.491-0.767-2.109-1.83-2.109c-1.065,0-1.838,0.618-1.838,2.109v0.866C105.087,35.143,105.859,35.761,106.925,35.761
		 M105.1,35.701c0.041-0.007,0.068-0.056,0.068-0.095v-0.315c0-0.048-0.027-0.081-0.075-0.081h-1.31
		c-0.719,0-0.834-0.188-0.834-0.699v-3.653c0-0.074-0.061-0.135-0.135-0.135h-0.346c-0.074,0-0.136,0.061-0.136,0.135v3.653
		c0,1.069,0.668,1.239,1.366,1.249l0.078,0.001C104.415,35.761,104.923,35.727,105.1,35.701 M101.363,35.727
		c0.041-0.007,0.067-0.054,0.067-0.094v-0.342c0-0.048-0.026-0.081-0.075-0.081h-1.308c-0.719,0-0.835-0.188-0.835-0.699v-1.128
		h2.082c0.075,0,0.136-0.061,0.136-0.134v-0.256c0-0.074-0.061-0.134-0.136-0.134h-2.082v-0.935c0-0.51,0.116-0.699,0.835-0.699
		h1.308c0.049,0,0.075-0.032,0.075-0.08V30.81c0-0.041-0.026-0.087-0.067-0.094c-0.284-0.026-0.922-0.04-1.322-0.04
		c-0.95,0-1.445,0.356-1.445,1.249v2.586c0,0.895,0.495,1.25,1.445,1.25C100.441,35.761,101.105,35.754,101.363,35.727
		 M96.242,35.761c0.259,0,0.57-0.088,0.693-0.511l1.248-4.373c0.006-0.013,0.006-0.027,0.006-0.04c0-0.068-0.047-0.114-0.115-0.114
		h-0.4c-0.054,0-0.102,0.046-0.115,0.101l-1.187,4.279c-0.027,0.094-0.062,0.141-0.13,0.141c-0.073,0-0.107-0.047-0.135-0.141
		l-1.18-4.279c-0.014-0.055-0.068-0.101-0.122-0.101h-0.393c-0.069,0-0.123,0.046-0.123,0.114c0,0.013,0,0.027,0.007,0.04
		l1.254,4.373C95.674,35.673,95.992,35.761,96.242,35.761 M93.619,35.727c0.041-0.007,0.068-0.054,0.068-0.094v-0.342
		c0-0.048-0.027-0.081-0.076-0.081h-1.308c-0.719,0-0.834-0.188-0.834-0.699v-1.128h2.081c0.075,0,0.137-0.061,0.137-0.134v-0.256
		c0-0.074-0.062-0.134-0.137-0.134H91.47v-0.935c0-0.51,0.115-0.699,0.834-0.699h1.308c0.049,0,0.076-0.032,0.076-0.08V30.81
		c0-0.041-0.027-0.087-0.068-0.094c-0.284-0.026-0.922-0.04-1.322-0.04c-0.95,0-1.445,0.356-1.445,1.249v2.586
		c0,0.895,0.495,1.25,1.445,1.25C92.697,35.761,93.361,35.754,93.619,35.727 M87.882,35.237l-0.288-0.001
		c-0.175-0.001-0.32-0.004-0.465-0.013V31.22c0.225-0.014,0.436-0.02,0.753-0.02c0.813,0,1.438,0.349,1.438,1.564v0.906
		C89.32,34.881,88.695,35.237,87.882,35.237 M87.882,35.761c1.255,0,2.056-0.651,2.056-2.09v-0.906c0-1.45-0.801-2.089-2.056-2.089
		c-0.515,0-1.037,0.033-1.233,0.067c-0.088,0.013-0.143,0.074-0.143,0.168v4.615c0,0.1,0.055,0.153,0.143,0.168
		C86.845,35.727,87.367,35.761,87.882,35.761 M83.861,35.727c0.041-0.007,0.067-0.054,0.067-0.094v-0.342
		c0-0.048-0.026-0.081-0.075-0.081h-1.308c-0.72,0-0.835-0.188-0.835-0.699v-1.128h2.082c0.074,0,0.136-0.061,0.136-0.134v-0.256
		c0-0.074-0.062-0.134-0.136-0.134h-2.082v-0.935c0-0.51,0.115-0.699,0.835-0.699h1.308c0.049,0,0.075-0.032,0.075-0.08V30.81
		c0-0.041-0.026-0.087-0.067-0.094c-0.285-0.026-0.922-0.04-1.322-0.04c-0.95,0-1.445,0.356-1.445,1.249v2.586
		c0,0.895,0.495,1.25,1.445,1.25C82.939,35.761,83.604,35.754,83.861,35.727 M78.212,33.1c-0.156,0-0.447-0.006-0.746-0.013v-1.841
		c0.116-0.014,0.34-0.019,0.535-0.02l0.211-0.001c0.849,0,1.289,0.223,1.289,0.895v0.047C79.501,32.893,79.047,33.1,78.212,33.1
		 M77.344,35.714c0.075,0,0.122-0.068,0.122-0.134v-1.976c0.226,0.009,0.373,0.015,0.506,0.018l0.159,0.002l0.258,0.001l1.213,2.001
		c0.047,0.073,0.082,0.085,0.139,0.087l0.473,0.001c0.055,0,0.088-0.041,0.088-0.088c0-0.02-0.007-0.04-0.021-0.06l-1.232-2.042
		c0.616-0.161,1.064-0.605,1.064-1.357V32.12c0-1.088-0.828-1.444-1.899-1.444c-0.394,0-0.901,0.021-1.192,0.053
		c-0.123,0.015-0.164,0.055-0.164,0.148v4.703c0,0.073,0.055,0.134,0.123,0.134H77.344z M74.93,33.537h-1.498l0.617-2.21
		c0.02-0.074,0.061-0.121,0.135-0.121c0.068,0,0.109,0.047,0.129,0.121L74.93,33.537z M72.747,35.714
		c0.054,0,0.108-0.047,0.122-0.101l0.434-1.545h1.756l0.441,1.545c0.013,0.054,0.054,0.101,0.115,0.101h0.399
		c0.075,0,0.115-0.047,0.115-0.107c0-0.014,0-0.033-0.006-0.048l-1.255-4.379c-0.115-0.411-0.434-0.504-0.685-0.504
		c-0.258,0-0.576,0.101-0.691,0.51l-1.255,4.373c-0.007,0.015-0.007,0.034-0.007,0.048c0,0.061,0.048,0.107,0.115,0.107H72.747z
		 M68.746,35.741c0.19,0,0.332-0.135,0.386-0.336l0.672-2.486c0.013-0.06,0.02-0.06,0.04-0.06h0.014c0.02,0,0.027,0,0.041,0.06
		l0.664,2.486c0.054,0.201,0.197,0.336,0.387,0.336h0.291c0.217,0,0.373-0.068,0.421-0.343l0.752-4.541v-0.021
		c0-0.068-0.047-0.114-0.115-0.114h-0.393c-0.054,0-0.102,0.04-0.116,0.114l-0.657,4.279c-0.014,0.066-0.007,0.101-0.034,0.101
		c-0.027,0-0.034-0.041-0.048-0.101l-0.664-2.486c-0.047-0.181-0.143-0.268-0.319-0.268h-0.434c-0.176,0-0.271,0.087-0.319,0.268
		l-0.664,2.486c-0.014,0.06-0.02,0.101-0.048,0.101c-0.027,0-0.02-0.034-0.034-0.101l-0.658-4.279
		c-0.013-0.074-0.06-0.114-0.114-0.114h-0.394c-0.068,0-0.115,0.046-0.115,0.114v0.021l0.752,4.541
		c0.048,0.274,0.204,0.343,0.421,0.343H68.746z M65.24,35.714c0.074,0,0.122-0.068,0.122-0.134v-4.334h1.322
		c0.075,0,0.129-0.04,0.129-0.107v-0.295c0-0.075-0.054-0.121-0.129-0.121h-3.261c-0.075,0-0.136,0.054-0.136,0.121v0.295
		c0,0.074,0.061,0.107,0.136,0.107h1.322v4.334c0,0.073,0.054,0.134,0.122,0.134H65.24z M60.324,35.714
		c0.074,0,0.135-0.061,0.135-0.134v-2.197h2.082c0.075,0,0.136-0.061,0.136-0.134v-0.256c0-0.074-0.061-0.134-0.136-0.134h-2.082
		v-0.935c0-0.51,0.116-0.699,0.834-0.699h1.309c0.048,0,0.075-0.032,0.075-0.08V30.81c0-0.041-0.027-0.087-0.068-0.094
		c-0.285-0.026-0.923-0.04-1.322-0.04c-0.95,0-1.445,0.356-1.445,1.249v3.655c0,0.073,0.061,0.134,0.136,0.134H60.324z
		 M57.075,35.21c-0.746,0-1.213-0.43-1.213-1.559v-0.866c0-1.129,0.474-1.56,1.213-1.56c0.746,0,1.207,0.431,1.207,1.56v0.866
		C58.282,34.78,57.815,35.21,57.075,35.21 M57.075,35.761c1.065,0,1.831-0.618,1.831-2.109v-0.866c0-1.491-0.766-2.109-1.831-2.109
		c-1.064,0-1.837,0.618-1.837,2.109v0.866C55.238,35.143,56.011,35.761,57.075,35.761 M52.817,35.761
		c1.336,0,1.675-0.699,1.675-1.344c0-0.537-0.278-0.907-1.065-1.37l-0.624-0.37c-0.515-0.309-0.739-0.497-0.739-0.812
		c0-0.491,0.299-0.64,0.997-0.64c0.394,0,0.868,0.021,1.166,0.041h0.014c0.068,0,0.115-0.041,0.115-0.107V30.87
		c0-0.067-0.047-0.102-0.115-0.114c-0.258-0.04-0.78-0.08-1.18-0.08c-1.031,0-1.621,0.376-1.621,1.189
		c0,0.537,0.312,0.879,0.936,1.256l0.658,0.396c0.617,0.376,0.814,0.565,0.814,0.9c0,0.47-0.218,0.793-1.031,0.793
		c-0.312,0-0.807-0.014-1.119-0.04h-0.02c-0.061,0-0.116,0.033-0.116,0.107v0.269c0,0.074,0.014,0.1,0.129,0.121
		C51.99,35.714,52.342,35.761,52.817,35.761"/>
</g>
</svg>
