<?xml version="1.0" standalone="no"?>
<!DOCTYPE svg PUBLIC "-//W3C//DTD SVG 20010904//EN"
 "http://www.w3.org/TR/2001/REC-SVG-20010904/DTD/svg10.dtd">
<svg version="1.0" xmlns="http://www.w3.org/2000/svg"
 width="512.000000pt" height="512.000000pt" viewBox="0 0 512.000000 512.000000"
 preserveAspectRatio="xMidYMid meet">
<metadata>
Created by potrace 1.11, written by Peter Selinger 2001-2013
</metadata>
<g transform="translate(0.000000,512.000000) scale(0.100000,-0.100000)"
fill="#000000" stroke="none">
<path d="M2354 4740 c-1015 -107 -1804 -856 -1961 -1861 -24 -158 -24 -480 0
-638 137 -879 777 -1588 1623 -1800 207 -52 318 -65 544 -65 360 0 653 67 968
221 890 437 1372 1421 1176 2401 -178 893 -913 1590 -1819 1727 -129 19 -415
27 -531 15z m93 -155 c47 -31 54 -70 51 -275 -3 -215 -9 -232 -85 -259 -35
-13 -46 -13 -79 0 -22 8 -48 29 -61 48 -22 32 -23 43 -23 220 0 157 3 191 18
221 32 65 116 86 179 45z m338 11 c19 -8 44 -30 55 -48 18 -30 20 -50 20 -231
l0 -199 -33 -33 c-42 -42 -92 -53 -140 -30 -69 33 -72 45 -69 270 4 220 9 241
64 268 41 20 59 21 103 3z m-1211 -288 c41 -38 166 -248 166 -280 0 -40 -15
-65 -50 -83 -66 -34 -94 -14 -187 137 -84 138 -86 143 -72 185 19 60 97 82
143 41z m2164 -85 c41 -45 31 -80 -62 -223 -72 -109 -89 -129 -116 -135 -61
-13 -120 34 -120 97 0 36 159 269 195 284 38 16 74 9 103 -23z m-2771 -685
c132 -68 151 -82 165 -117 20 -53 -39 -113 -94 -96 -28 9 -258 134 -258 141 0
3 8 0 18 -5 16 -8 18 -6 17 12 -1 12 7 42 17 66 15 35 16 46 6 53 -9 5 -9 8
-1 8 6 0 65 -28 130 -62z m3370 -14 c-3 -3 -12 -4 -19 -1 -8 3 -5 6 6 6 11 1
17 -2 13 -5z m-44 -11 c-10 -3 -10 -7 0 -18 7 -7 16 -10 21 -7 5 3 7 1 3 -4
-3 -5 0 -31 7 -57 l12 -48 30 22 c26 20 27 20 9 2 -30 -32 -268 -153 -299
-153 -33 0 -76 41 -76 72 0 13 7 34 16 46 18 26 230 136 245 127 5 -4 9 -3 8
2 -3 17 2 23 19 22 9 0 12 -3 5 -6z m88 -10 c13 -17 13 -17 -6 -3 -11 8 -22
16 -24 17 -2 2 0 3 6 3 6 0 17 -8 24 -17z m-1816 -70 c-3 -11 0 -11 16 -2 17
9 23 8 30 -2 5 -8 9 -9 9 -4 0 6 9 11 20 11 11 0 20 -4 20 -8 0 -5 15 -6 33
-3 20 3 27 2 18 -4 -9 -6 -10 -11 -2 -15 6 -4 14 -1 17 8 5 12 9 11 25 -5 21
-21 55 -27 43 -7 -4 7 -3 8 5 4 6 -4 8 -12 5 -18 -5 -8 -1 -9 12 -4 10 4 15 4
11 0 -8 -9 11 -34 27 -34 7 0 6 4 -2 9 -11 7 -10 9 3 14 9 4 13 3 10 -2 -5 -9
12 -26 27 -26 4 0 17 -8 28 -18 12 -10 26 -14 33 -10 7 4 6 0 -2 -10 -12 -15
-12 -17 2 -12 8 4 18 1 23 -6 5 -8 3 -10 -7 -4 -8 4 -5 -1 6 -12 11 -11 24
-18 29 -15 4 2 2 9 -5 14 -11 8 -11 9 1 5 8 -2 14 -11 12 -19 -1 -8 8 -20 20
-26 23 -12 23 -12 -2 -6 -24 6 -24 6 -5 -9 18 -14 22 -14 39 1 15 13 17 13 11
2 -15 -24 -14 -40 1 -40 9 0 12 -4 9 -10 -3 -5 3 -15 15 -22 11 -7 20 -19 20
-26 0 -7 7 -15 15 -18 12 -5 13 -9 4 -20 -10 -12 -9 -13 5 -8 12 5 15 2 9 -12
-4 -11 -3 -15 5 -10 6 3 13 2 17 -4 3 -5 0 -10 -7 -10 -8 0 -6 -5 5 -11 9 -6
15 -14 12 -19 -3 -4 1 -10 9 -13 8 -3 12 -16 11 -31 -2 -16 3 -30 13 -36 10
-5 14 -10 9 -10 -4 0 1 -12 10 -27 10 -15 13 -24 6 -20 -7 5 -9 0 -6 -14 3
-11 11 -18 19 -15 10 4 11 -1 4 -20 -12 -29 -13 -40 -3 -31 11 11 32 -27 22
-39 -6 -8 -4 -17 6 -28 10 -9 12 -16 5 -16 -6 0 -10 -8 -9 -17 4 -40 -1 -55
-16 -49 -37 14 -5 -7 125 -84 77 -45 140 -85 140 -88 0 -4 -54 -38 -120 -76
-66 -37 -117 -72 -115 -77 3 -4 -4 -13 -15 -19 -11 -6 -19 -14 -19 -18 1 -4 0
-10 -1 -14 -1 -5 -3 -14 -4 -20 -1 -7 -7 -12 -12 -11 -6 1 -11 -4 -11 -12 0
-8 5 -11 11 -8 6 4 5 0 -1 -9 -7 -8 -10 -18 -6 -21 3 -4 -2 -7 -13 -8 -10 0
-14 -3 -7 -5 7 -3 9 -12 6 -20 -3 -7 -9 -11 -14 -8 -5 3 -6 -2 -3 -10 4 -9 -1
-18 -10 -22 -10 -4 -15 -14 -12 -30 3 -13 0 -26 -5 -30 -5 -3 -6 -10 -3 -16 5
-7 2 -8 -6 -3 -16 10 -31 -14 -24 -40 4 -16 3 -17 -5 -5 -9 13 -12 12 -17 -7
-4 -13 -11 -20 -17 -16 -6 3 -7 1 -3 -5 4 -7 1 -12 -6 -13 -10 0 -10 -2 -1 -6
10 -3 10 -7 0 -18 -7 -7 -16 -10 -21 -7 -5 3 -7 -2 -3 -11 3 -9 1 -19 -5 -23
-7 -4 -8 -3 -4 4 14 23 -7 12 -40 -20 -19 -18 -34 -39 -34 -45 0 -7 -5 -13
-11 -13 -7 0 -18 -8 -26 -17 -8 -10 -12 -12 -8 -5 3 6 1 12 -4 12 -6 0 -11 -6
-11 -14 0 -18 -50 -52 -51 -34 0 7 -5 2 -10 -12 -7 -16 -13 -20 -17 -13 -6 9
-20 5 -51 -12 -24 -14 -48 -22 -54 -18 -6 4 -8 -2 -5 -15 4 -15 2 -19 -8 -15
-8 3 -12 9 -9 13 3 4 -6 7 -19 6 -13 0 -22 -4 -20 -8 2 -4 0 -9 -6 -13 -5 -3
-10 -2 -10 3 0 6 -9 8 -20 5 -11 -3 -18 -9 -15 -13 5 -8 -39 -5 -54 4 -5 4
-12 2 -16 -4 -3 -5 -11 -10 -16 -10 -6 0 -7 5 -4 10 8 13 -1 13 -26 0 -13 -8
-19 -7 -19 0 0 6 -5 8 -10 5 -6 -4 -8 -11 -5 -16 3 -5 -1 -6 -10 -3 -10 4 -12
10 -6 18 6 8 1 11 -20 12 -26 1 -27 0 -11 -13 15 -13 15 -13 -5 -3 -13 6 -23
16 -23 22 0 7 -5 6 -15 -2 -12 -10 -16 -8 -24 11 -5 13 -10 18 -10 10 -1 -10
-7 -10 -27 4 -15 9 -24 12 -20 7 3 -6 2 -14 -4 -17 -6 -4 -9 -1 -8 7 2 8 -9
13 -30 14 -20 2 -30 -2 -26 -8 4 -7 2 -8 -4 -4 -6 4 -59 -20 -116 -54 -58 -33
-110 -60 -115 -60 -8 0 -12 88 -13 268 -1 180 -4 236 -8 172 -3 -52 -8 -83 -9
-67 -5 38 -5 39 -20 66 -7 13 -8 21 -2 17 7 -4 9 -1 5 8 -3 9 -9 15 -12 14
-26 -3 -34 3 -23 16 9 10 8 15 -4 20 -8 3 -15 10 -15 16 0 6 5 8 10 5 6 -3 10
-2 10 3 0 6 -7 13 -16 16 -8 3 -13 10 -10 15 4 5 -6 19 -21 30 -16 12 -21 18
-12 15 10 -3 20 -1 24 5 3 6 -1 11 -9 11 -8 0 -18 5 -22 12 -4 6 -3 8 3 5 7
-4 7 8 0 38 -6 27 -14 42 -21 38 -6 -4 -5 0 2 9 10 12 10 17 1 20 -7 2 -12 26
-13 57 -1 33 -7 56 -16 63 -13 8 -12 9 1 5 13 -4 15 -1 12 14 -3 10 -10 19
-15 19 -5 0 -2 8 7 17 16 15 16 18 1 28 -21 16 -20 26 1 18 17 -7 17 -5 -1 21
-10 16 -13 25 -7 22 11 -7 15 5 12 32 -1 6 3 12 9 12 6 0 6 7 -2 20 -11 17
-10 22 2 30 8 5 11 10 5 10 -5 0 -10 13 -10 29 0 21 4 27 15 23 8 -3 12 -2 8
3 -4 4 -2 15 5 23 10 13 9 15 -8 9 -17 -6 -18 -5 -4 5 22 19 29 44 16 57 -7 7
-7 12 -2 11 22 -5 29 1 15 10 -11 7 -11 10 -2 10 7 0 10 5 7 10 -4 6 -1 9 7 8
8 -2 12 5 11 20 -2 16 1 21 10 16 9 -6 9 -4 -1 8 -11 14 -10 18 4 26 10 6 19
24 20 42 3 39 12 49 25 30 8 -12 10 -10 6 8 -3 12 -1 22 4 22 5 0 10 19 11 43
1 23 5 -5 8 -63 5 -89 6 -73 8 98 1 111 5 202 9 202 6 0 122 -63 161 -88 12
-8 22 -12 22 -9 0 3 -15 14 -32 26 l-33 20 37 -3 c28 -3 35 0 31 10 -3 8 -1
14 5 14 6 0 12 -5 14 -11 2 -7 9 -5 17 5 12 14 12 16 -3 10 -9 -3 -16 -1 -16
5 0 6 8 11 18 11 9 0 32 9 50 20 19 12 30 15 26 9 -5 -8 -3 -9 5 -4 7 4 10 17
7 29 -5 21 -5 21 10 1 10 -13 17 -16 22 -9 4 6 15 10 24 9 10 -2 15 2 12 9 -5
14 5 16 76 16 25 0 51 4 59 9 21 14 52 9 46 -6z m-1549 -807 c29 -29 34 -41
34 -83 0 -55 -17 -86 -60 -108 -23 -12 -67 -15 -217 -13 -103 1 -171 3 -150 5
l37 4 -6 62 c-12 113 -6 146 25 149 9 1 -9 4 -39 8 -34 4 20 7 144 8 l198 2
34 -34z m3454 24 c-30 -4 -45 -7 -33 -8 13 -1 25 -11 29 -24 13 -38 11 -121
-3 -155 l-13 -32 38 -4 c20 -2 -54 -4 -165 -3 -198 1 -202 1 -227 25 -57 54
-55 135 5 186 l31 25 196 -2 c124 -1 176 -4 142 -8z m-1156 -25 c11 -8 16 -15
10 -15 -5 0 -18 7 -28 15 -11 8 -16 15 -10 15 5 0 18 -7 28 -15z m-2236 -805
c28 -27 29 -79 1 -108 -18 -20 -247 -142 -266 -142 -4 0 2 7 13 16 10 8 14 13
8 10 -11 -5 -26 14 -29 39 -1 6 -7 21 -13 35 -9 21 -7 28 10 43 28 24 17 21
-39 -9 -26 -14 -43 -20 -36 -13 27 27 270 148 299 149 17 0 40 -9 52 -20z
m3118 -110 c123 -67 155 -91 153 -114 0 -6 -5 -1 -11 11 -16 33 -36 37 -30 6
3 -18 1 -24 -7 -19 -11 7 -12 6 -16 -31 -1 -13 -8 -29 -14 -37 -10 -12 -8 -15
11 -19 l23 -4 -23 -2 c-25 -1 -265 120 -299 152 -32 28 -32 90 -1 111 41 29
79 19 214 -54z m-1356 6 c0 -2 -7 -7 -16 -10 -8 -3 -12 -2 -9 4 6 10 25 14 25
6z m-1179 -535 c48 -48 41 -77 -53 -219 -45 -68 -90 -127 -99 -133 -34 -18
-88 -10 -114 16 -43 42 -35 77 50 211 42 66 85 127 97 137 32 27 85 22 119
-12z m1851 -20 c41 -32 168 -251 168 -289 0 -45 -46 -92 -89 -92 -43 0 -77 35
-153 160 -79 129 -81 135 -67 177 19 58 93 81 141 44z m-907 -111 c14 -5 37
-22 50 -36 25 -27 25 -28 25 -231 0 -222 -5 -246 -55 -273 -61 -32 -142 -8
-172 51 -9 17 -13 84 -13 219 0 215 2 223 64 261 35 21 62 24 101 9z"/>
<path d="M2525 3430 c-3 -5 -1 -10 4 -10 6 0 11 5 11 10 0 6 -2 10 -4 10 -3 0
-8 -4 -11 -10z"/>
<path d="M3237 2296 c-43 -26 -63 -44 -30 -27 12 6 30 8 40 5 14 -5 15 -4 4 4
-11 8 -8 13 15 26 16 8 25 15 19 15 -5 0 -27 -10 -48 -23z"/>
<path d="M3155 2060 c-3 -6 1 -7 9 -4 18 7 21 14 7 14 -6 0 -13 -4 -16 -10z"/>
<path d="M2288 1744 c-38 -20 -36 -28 2 -9 17 9 30 18 30 20 0 7 -1 6 -32 -11z"/>
</g>
</svg>
