<svg xmlns="http://www.w3.org/2000/svg" width="960" height="556.179" viewBox="0 0 960 556.179" xmlns:xlink="http://www.w3.org/1999/xlink" role="img" artist="Katerina Limpitsouni" source="https://undraw.co/"><g transform="translate(-651 -312)"><g transform="translate(651 312)"><path d="M1056.977,597.719H277.44V87.8A28.554,28.554,0,0,1,305.958,59.29h722.5A28.553,28.553,0,0,1,1056.977,87.8Z" transform="translate(-185.731 -59.29)" fill="#090814"/><rect width="733.682" height="461.51" transform="translate(113.158 34.761)" fill="#fff"/><path d="M1118.565,445.838H278.307L224.523,435.6a11.186,11.186,0,0,1-9.083-10.976V413.28h960v11.507a11.218,11.218,0,0,1-8.879,10.932l-48,10.1Z" transform="translate(-215.44 110.341)" fill="#ccc"/><path d="M632.222,428.083H498.932A12.5,12.5,0,0,1,486.454,415.6V413.29H644.728V415.6a12.5,12.5,0,0,1-12.478,12.478Z" transform="translate(-85.57 110.345)" fill="#2f2e41"/></g><ellipse cx="68.332" cy="68.331" rx="68.332" ry="68.331" transform="translate(1062.668 443.373)" fill="#5dc442"/><path d="M557.156,266.055a7.087,7.087,0,0,1-4.264-1.417l-.076-.057L536.757,252.3a7.137,7.137,0,0,1,8.684-11.33l10.4,7.977,24.579-32.067a7.133,7.133,0,0,1,10-1.321h0l-.152.212.157-.212a7.142,7.142,0,0,1,1.319,10l-28.911,37.7a7.138,7.138,0,0,1-5.676,2.783Z" transform="translate(567.07 271.717)" fill="#fff"/><path d="M16,0H585a16,16,0,0,1,16,16V29a16,16,0,0,1-16,16H16A16,16,0,0,1,0,29V16A16,16,0,0,1,16,0Z" transform="translate(830 622.755)" fill="#5dc442"/><path d="M15.754,0H68.743a15.754,15.754,0,0,1,0,31.507H15.754A15.754,15.754,0,0,1,15.754,0Z" transform="translate(1040.542 711.567)" fill="#5dc442"/><path d="M11.445,6.24V-14.068H9.583a4.465,4.465,0,0,1-.745,1.89A4.017,4.017,0,0,1,7.507-11a5.474,5.474,0,0,1-1.762.587,12.538,12.538,0,0,1-2,.158V-8.31H9.01V6.24Zm6.645-10q0-.745.014-1.647a14.359,14.359,0,0,1,.143-1.8,13.413,13.413,0,0,1,.372-1.762,4.669,4.669,0,0,1,.716-1.5,3.689,3.689,0,0,1,1.189-1.045,3.528,3.528,0,0,1,1.747-.4,3.528,3.528,0,0,1,1.747.4,3.689,3.689,0,0,1,1.189,1.045,4.669,4.669,0,0,1,.716,1.5A13.413,13.413,0,0,1,26.3-7.208a14.359,14.359,0,0,1,.143,1.8q.014.9.014,1.647,0,1.146-.072,2.564a10.792,10.792,0,0,1-.458,2.664,5.031,5.031,0,0,1-1.246,2.105,3.253,3.253,0,0,1-2.406.859,3.253,3.253,0,0,1-2.406-.859A5.031,5.031,0,0,1,18.62,1.471a10.792,10.792,0,0,1-.458-2.664Q18.09-2.611,18.09-3.756Zm-2.578.029q0,1.117.057,2.32A15.789,15.789,0,0,0,15.856.941,11.167,11.167,0,0,0,16.515,3.1a5.823,5.823,0,0,0,1.174,1.79,5.193,5.193,0,0,0,1.876,1.217,7.408,7.408,0,0,0,2.707.444,7.382,7.382,0,0,0,2.721-.444,5.216,5.216,0,0,0,1.862-1.217A5.823,5.823,0,0,0,28.029,3.1,11.167,11.167,0,0,0,28.688.941a15.789,15.789,0,0,0,.286-2.349q.057-1.2.057-2.32t-.057-2.32A15.789,15.789,0,0,0,28.688-8.4a11.517,11.517,0,0,0-.659-2.177,5.777,5.777,0,0,0-1.174-1.8,5.349,5.349,0,0,0-1.876-1.232,7.2,7.2,0,0,0-2.707-.458,7.2,7.2,0,0,0-2.707.458,5.349,5.349,0,0,0-1.876,1.232,5.777,5.777,0,0,0-1.174,1.8A11.517,11.517,0,0,0,15.856-8.4a15.789,15.789,0,0,0-.286,2.349Q15.512-4.845,15.512-3.728Zm18.5-.029q0-.745.014-1.647a14.359,14.359,0,0,1,.143-1.8,13.413,13.413,0,0,1,.372-1.762,4.669,4.669,0,0,1,.716-1.5,3.689,3.689,0,0,1,1.189-1.045,3.528,3.528,0,0,1,1.747-.4,3.528,3.528,0,0,1,1.747.4,3.689,3.689,0,0,1,1.189,1.045,4.669,4.669,0,0,1,.716,1.5,13.412,13.412,0,0,1,.372,1.762,14.36,14.36,0,0,1,.143,1.8q.014.9.014,1.647,0,1.146-.072,2.564a10.793,10.793,0,0,1-.458,2.664A5.031,5.031,0,0,1,40.6,3.576a3.253,3.253,0,0,1-2.406.859,3.253,3.253,0,0,1-2.406-.859,5.031,5.031,0,0,1-1.246-2.105,10.792,10.792,0,0,1-.458-2.664Q34.015-2.611,34.015-3.756Zm-2.578.029q0,1.117.057,2.32A15.789,15.789,0,0,0,31.781.941,11.168,11.168,0,0,0,32.44,3.1a5.823,5.823,0,0,0,1.174,1.79,5.193,5.193,0,0,0,1.876,1.217,7.408,7.408,0,0,0,2.707.444,7.382,7.382,0,0,0,2.721-.444A5.216,5.216,0,0,0,42.78,4.894,5.823,5.823,0,0,0,43.955,3.1,11.167,11.167,0,0,0,44.613.941,15.789,15.789,0,0,0,44.9-1.408q.057-1.2.057-2.32T44.9-6.048A15.789,15.789,0,0,0,44.613-8.4a11.517,11.517,0,0,0-.659-2.177,5.777,5.777,0,0,0-1.174-1.8A5.349,5.349,0,0,0,40.9-13.609a7.2,7.2,0,0,0-2.707-.458,7.2,7.2,0,0,0-2.707.458,5.349,5.349,0,0,0-1.876,1.232,5.777,5.777,0,0,0-1.174,1.8A11.517,11.517,0,0,0,31.781-8.4a15.789,15.789,0,0,0-.286,2.349Q31.438-4.845,31.438-3.728ZM50.943-8.31A11.907,11.907,0,0,1,51.029-9.7a4.658,4.658,0,0,1,.358-1.346,2.845,2.845,0,0,1,.759-1.031,1.918,1.918,0,0,1,1.289-.415,1.907,1.907,0,0,1,1.3.415,2.777,2.777,0,0,1,.73,1.031A4.639,4.639,0,0,1,55.8-9.7q.072.73.072,1.361a12.277,12.277,0,0,1-.086,1.4,4.672,4.672,0,0,1-.358,1.361,2.714,2.714,0,0,1-.759,1.017,2.01,2.01,0,0,1-1.318.4,1.862,1.862,0,0,1-1.275-.415,2.777,2.777,0,0,1-.73-1.031,4.639,4.639,0,0,1-.329-1.346Q50.943-7.68,50.943-8.31ZM48.8-8.253a9.579,9.579,0,0,0,.243,2.205,5.161,5.161,0,0,0,.788,1.8,3.789,3.789,0,0,0,1.432,1.217,4.833,4.833,0,0,0,2.177.444,4.244,4.244,0,0,0,2.12-.487,4.332,4.332,0,0,0,1.418-1.275,5.152,5.152,0,0,0,.8-1.833,9.5,9.5,0,0,0,.243-2.163,11.014,11.014,0,0,0-.215-2.22,4.937,4.937,0,0,0-.745-1.819,3.818,3.818,0,0,0-1.4-1.232,4.756,4.756,0,0,0-2.22-.458,4.654,4.654,0,0,0-2.205.473A3.932,3.932,0,0,0,49.8-12.32a5.259,5.259,0,0,0-.773,1.847A10.35,10.35,0,0,0,48.8-8.253ZM65.093.855a11.909,11.909,0,0,1,.086-1.389,4.658,4.658,0,0,1,.358-1.346A2.845,2.845,0,0,1,66.3-2.911a1.918,1.918,0,0,1,1.289-.415,1.907,1.907,0,0,1,1.3.415,2.777,2.777,0,0,1,.73,1.031,4.639,4.639,0,0,1,.329,1.346q.072.73.072,1.361a12.275,12.275,0,0,1-.086,1.4,4.672,4.672,0,0,1-.358,1.361,2.714,2.714,0,0,1-.759,1.017,2.01,2.01,0,0,1-1.318.4,1.862,1.862,0,0,1-1.275-.415,2.777,2.777,0,0,1-.73-1.031,4.639,4.639,0,0,1-.329-1.346Q65.093,1.485,65.093.855ZM62.945.913a9.578,9.578,0,0,0,.243,2.205,5.012,5.012,0,0,0,.788,1.79,3.84,3.84,0,0,0,1.432,1.2,4.833,4.833,0,0,0,2.177.444,4.349,4.349,0,0,0,2.12-.473,4.188,4.188,0,0,0,1.418-1.26,5.152,5.152,0,0,0,.8-1.833A9.5,9.5,0,0,0,72.168.827a11.014,11.014,0,0,0-.215-2.22,4.937,4.937,0,0,0-.745-1.819,3.818,3.818,0,0,0-1.4-1.232,4.756,4.756,0,0,0-2.22-.458,4.654,4.654,0,0,0-2.205.473,3.932,3.932,0,0,0-1.432,1.275,5.259,5.259,0,0,0-.773,1.847A10.35,10.35,0,0,0,62.945.913Zm4.01-15.353L51.545,6.842h2.463L69.389-14.44Z" transform="translate(1092.656 650.906)" fill="#fff"/><path d="M15.754,0H68.743a15.754,15.754,0,0,1,0,31.507H15.754A15.754,15.754,0,0,1,15.754,0Z" transform="translate(1136.496 711.567)" fill="#e6e6e6"/></g></svg>